HIERARCHY
ROOT Hips
{
	OFFSET 0.000000 35.082581 0.000000
	CHANNELS 6 Xposition Yposition Zposition Xrotation Yrotation Zrotation 
	JOINT Spine
	{
		OFFSET 0.000000 6.876099 0.125700
		CHANNELS 3 Xrotation Yrotation Zrotation
		JOINT Spine1
		{
			OFFSET 0.000000 5.730043 0.104720
			CHANNELS 3 Xrotation Yrotation Zrotation
			JOINT Spine1_split
			{
				OFFSET 0.000000 5.730043 0.104720
				CHANNELS 3 Xrotation Yrotation Zrotation
				JOINT Spine2
				{
					OFFSET 0.000000 5.730043 0.104720
					CHANNELS 3 Xrotation Yrotation Zrotation
					JOINT Neck
					{
						OFFSET 0.000000 10.314075 0.188496
						CHANNELS 3 Xrotation Yrotation Zrotation
						JOINT Head
						{
							OFFSET 0.000000 7.643700 -2.377400
							CHANNELS 3 Xrotation Yrotation Zrotation
							JOINT HeadTop_End
							{
								OFFSET 0.000000 43.788605 -13.619600
								CHANNELS 3 Xrotation Yrotation Zrotation
								End Site
								{
									OFFSET 0.000000 0.000000 0.000000
								}
							}
						}
					}
					JOINT LeftShoulder
					{
						OFFSET 2.196100 4.412489 0.087492
						CHANNELS 3 Xrotation Yrotation Zrotation
						JOINT LeftShoulder_split
						{
							OFFSET 2.196100 4.412489 0.087492
							CHANNELS 3 Xrotation Yrotation Zrotation
							JOINT LeftArm
							{
								OFFSET 8.771219 -2.981674 -0.026999
								CHANNELS 3 Xrotation Yrotation Zrotation
								JOINT LeftForeArm
								{
									OFFSET 8.512804 0.000000 -0.000000
									CHANNELS 3 Xrotation Yrotation Zrotation
									JOINT LeftHand
									{
										OFFSET 18.484802 0.000000 -0.000000
										CHANNELS 3 Xrotation Yrotation Zrotation
										JOINT LeftHandThumb1
										{
											OFFSET 2.499420 -1.158070 2.653252
											CHANNELS 3 Xrotation Yrotation Zrotation
											JOINT LeftHandThumb2
											{
												OFFSET 2.370079 -1.368366 1.368366
												CHANNELS 3 Xrotation Yrotation Zrotation
												JOINT LeftHandThumb3
												{
													OFFSET 2.676727 -1.545410 1.545409
													CHANNELS 3 Xrotation Yrotation Zrotation
													JOINT LeftHandThumb4
													{
														OFFSET 1.692226 -0.977005 0.977007
														CHANNELS 3 Xrotation Yrotation Zrotation
														End Site
														{
															OFFSET 0.000000 0.000000 0.000000
														}
													}
												}
											}
										}
										JOINT LeftHandIndex1
										{
											OFFSET 7.924831 -0.457527 2.345128
											CHANNELS 3 Xrotation Yrotation Zrotation
											JOINT LeftHandIndex2
											{
												OFFSET 3.643303 0.000000 0.000000
												CHANNELS 3 Xrotation Yrotation Zrotation
												JOINT LeftHandIndex3
												{
													OFFSET 3.810799 0.000000 0.000000
													CHANNELS 3 Xrotation Yrotation Zrotation
													JOINT LeftHandIndex4
													{
														OFFSET 2.403702 0.000000 0.000000
														CHANNELS 3 Xrotation Yrotation Zrotation
														End Site
														{
															OFFSET 0.000000 0.000000 0.000000
														}
													}
												}
											}
										}
										JOINT LeftHandMiddle1
										{
											OFFSET 8.563995 0.000000 -0.000000
											CHANNELS 3 Xrotation Yrotation Zrotation
											JOINT LeftHandMiddle2
											{
												OFFSET 3.861618 0.000000 0.000000
												CHANNELS 3 Xrotation Yrotation Zrotation
												JOINT LeftHandMiddle3
												{
													OFFSET 3.701603 0.000000 0.000000
													CHANNELS 3 Xrotation Yrotation Zrotation
													JOINT LeftHandMiddle4
													{
														OFFSET 2.322544 0.000000 0.000000
														CHANNELS 3 Xrotation Yrotation Zrotation
														End Site
														{
															OFFSET 0.000000 0.000000 0.000000
														}
													}
												}
											}
										}
										JOINT LeftHandRing1
										{
											OFFSET 8.426460 -0.424637 -3.286992
											CHANNELS 3 Xrotation Yrotation Zrotation
											JOINT LeftHandRing2
											{
												OFFSET 3.126408 0.000000 0.000000
												CHANNELS 3 Xrotation Yrotation Zrotation
												JOINT LeftHandRing3
												{
													OFFSET 3.085026 0.000000 0.000000
													CHANNELS 3 Xrotation Yrotation Zrotation
													JOINT LeftHandRing4
													{
														OFFSET 1.644005 0.000000 0.000000
														CHANNELS 3 Xrotation Yrotation Zrotation
														End Site
														{
															OFFSET 0.000000 0.000000 0.000000
														}
													}
												}
											}
										}
									}
								}
							}
						}
					}
					JOINT RightShoulder
					{
						OFFSET -2.196100 4.412496 0.070690
						CHANNELS 3 Xrotation Yrotation Zrotation
						JOINT RightShoulder_split
						{
							OFFSET -2.196100 4.412496 0.070690
							CHANNELS 3 Xrotation Yrotation Zrotation
							JOINT RightArm
							{
								OFFSET -8.771282 -2.981682 -0.094208
								CHANNELS 3 Xrotation Yrotation Zrotation
								JOINT RightForeArm
								{
									OFFSET -8.494598 0.000000 0.000000
									CHANNELS 3 Xrotation Yrotation Zrotation
									JOINT RightHand
									{
										OFFSET -18.483803 0.000000 0.000001
										CHANNELS 3 Xrotation Yrotation Zrotation
										JOINT RightHandThumb1
										{
											OFFSET -2.527351 -1.008072 2.575253
											CHANNELS 3 Xrotation Yrotation Zrotation
											JOINT RightHandThumb2
											{
												OFFSET -2.321518 -1.340328 1.340329
												CHANNELS 3 Xrotation Yrotation Zrotation
												JOINT RightHandThumb3
												{
													OFFSET -2.657753 -1.534454 1.534455
													CHANNELS 3 Xrotation Yrotation Zrotation
													JOINT RightHandThumb4
													{
														OFFSET -1.807510 -1.043568 1.043567
														CHANNELS 3 Xrotation Yrotation Zrotation
														End Site
														{
															OFFSET 0.000000 0.000000 0.000000
														}
													}
												}
											}
										}
										JOINT RightHandIndex1
										{
											OFFSET -8.811420 0.015533 2.887987
											CHANNELS 3 Xrotation Yrotation Zrotation
											JOINT RightHandIndex2
											{
												OFFSET -3.537502 0.000000 0.000000
												CHANNELS 3 Xrotation Yrotation Zrotation
												JOINT RightHandIndex3
												{
													OFFSET -3.356201 0.000000 0.000000
													CHANNELS 3 Xrotation Yrotation Zrotation
													JOINT RightHandIndex4
													{
														OFFSET -1.933098 0.000000 0.000000
														CHANNELS 3 Xrotation Yrotation Zrotation
														End Site
														{
															OFFSET 0.000000 0.000000 0.000000
														}
													}
												}
											}
										}
										JOINT RightHandMiddle1
										{
											OFFSET -8.178135 0.000000 0.000000
											CHANNELS 3 Xrotation Yrotation Zrotation
											JOINT RightHandMiddle2
											{
												OFFSET -3.901302 0.000000 0.000000
												CHANNELS 3 Xrotation Yrotation Zrotation
												JOINT RightHandMiddle3
												{
													OFFSET -3.909599 0.000000 0.000000
													CHANNELS 3 Xrotation Yrotation Zrotation
													JOINT RightHandMiddle4
													{
														OFFSET -2.376003 0.000000 0.000000
														CHANNELS 3 Xrotation Yrotation Zrotation
														End Site
														{
															OFFSET 0.000000 0.000000 0.000000
														}
													}
												}
											}
										}
										JOINT RightHandRing1
										{
											OFFSET -7.559013 0.014137 -2.865403
											CHANNELS 3 Xrotation Yrotation Zrotation
											JOINT RightHandRing2
											{
												OFFSET -3.449306 0.000000 0.000000
												CHANNELS 3 Xrotation Yrotation Zrotation
												JOINT RightHandRing3
												{
													OFFSET -3.362106 0.000000 0.000000
													CHANNELS 3 Xrotation Yrotation Zrotation
													JOINT RightHandRing4
													{
														OFFSET -2.076401 0.000000 0.000000
														CHANNELS 3 Xrotation Yrotation Zrotation
														End Site
														{
															OFFSET 0.000000 0.000000 0.000000
														}
													}
												}
											}
										}
									}
								}
							}
						}
					}
				}
			}
		}
	}
	JOINT LeftUpLeg
	{
		OFFSET 10.205400 -3.823500 0.155100
		CHANNELS 3 Xrotation Yrotation Zrotation
		JOINT LeftLeg
		{
			OFFSET 0.708757 -12.982077 0.567790
			CHANNELS 3 Xrotation Yrotation Zrotation
			JOINT LeftFoot
			{
				OFFSET -0.708756 -10.717838 -2.184338
				CHANNELS 3 Xrotation Yrotation Zrotation
				JOINT LeftToeBase
				{
					OFFSET 0.108149 -7.191104 7.560241
					CHANNELS 3 Xrotation Yrotation Zrotation
					JOINT LeftToe_End
					{
						OFFSET 0.070230 0.081724 4.490308
						CHANNELS 3 Xrotation Yrotation Zrotation
						End Site
						{
							OFFSET 0.000000 0.000000 0.000000
						}
					}
				}
			}
		}
	}
	JOINT RightUpLeg
	{
		OFFSET -10.205400 -3.823500 0.005500
		CHANNELS 3 Xrotation Yrotation Zrotation
		JOINT RightLeg
		{
			OFFSET -0.708756 -12.982134 0.610632
			CHANNELS 3 Xrotation Yrotation Zrotation
			JOINT RightFoot
			{
				OFFSET 0.708754 -10.717769 -1.945823
				CHANNELS 3 Xrotation Yrotation Zrotation
				JOINT RightToeBase
				{
					OFFSET -0.108140 -7.191069 7.372968
					CHANNELS 3 Xrotation Yrotation Zrotation
					JOINT RightToe_End
					{
						OFFSET -0.070227 0.081735 4.479403
						CHANNELS 3 Xrotation Yrotation Zrotation
						End Site
						{
							OFFSET 0.000000 0.000000 0.000000
						}
					}
				}
			}
		}
	}
}
MOTION
Frames: 4
Frame Time: 0.016667
0.253923 28.321712 0.352014 11.723604 3.110916 -1.179541 9.930227 1.363819 1.103807 7.645340 0.753229 0.067568 0.000000 0.000000 0.000000 7.636948 0.840685 0.048856 -11.425858 -1.903121 7.327009 -27.420390 2.052766 -6.271737 -0.000000 -0.000000 0.000000 3.557345 -26.212558 4.772371 0.000000 0.000000 0.000000 -62.403279 -21.804165 -66.739008 0.000014 -109.450441 0.000031 0.778320 -4.236637 14.397171 -15.245218 10.163075 26.456309 3.939042 7.948716 0.746805 -0.579461 1.574998 2.538724 -0.000003 0.000002 -0.000000 0.000003 0.000009 0.000006 0.000002 0.000006 -0.000062 -0.000004 0.000014 -0.000056 -0.000001 0.000000 -0.000002 -0.000003 -0.001929 0.015980 0.000001 0.001955 -0.016048 0.000000 0.000007 -0.000058 -0.000002 -0.000001 0.000001 -0.000004 -0.000003 0.000003 0.000008 0.000019 -0.000065 -0.000006 0.000006 -0.000058 0.000001 -0.000002 0.000000 1.209619 13.189586 10.689374 0.000000 0.000000 0.000000 -58.736792 43.251217 51.659842 0.000015 106.371850 -0.000039 2.773285 -4.037759 -38.887699 -6.948225 -5.049339 -29.743001 4.637207 -8.634139 -0.225398 -1.273759 0.137310 -2.094857 -0.000001 0.000002 -0.000000 0.000001 0.000003 -0.000004 0.000005 -0.000019 0.000086 0.000003 0.000004 0.000024 0.000000 -0.000004 0.000000 -0.000003 0.000000 0.000001 0.000009 -0.000016 0.000082 -0.000004 0.000013 0.000020 -0.000000 -0.000001 0.000001 0.000012 -0.000004 0.000002 -0.000002 -0.000014 0.000081 -0.000010 0.000004 0.000025 0.000000 -0.000004 0.000000 -49.415353 2.055455 4.426953 81.490256 6.684878 -0.468888 -42.684909 7.134814 -6.048193 -0.000014 -0.000009 -0.000005 0.000000 -0.000004 0.000000 -40.007003 -15.776950 -3.573391 78.710834 -7.476591 -4.654135 -50.510499 -12.642476 5.136768 0.000020 0.000005 -0.000002 0.000000 0.000000 -0.000000 
0.254781 28.322823 0.354008 11.746284 3.106619 -1.184949 9.921865 1.372046 1.095105 7.639436 0.760472 0.063173 0.000000 0.000000 0.000000 7.630964 0.847824 0.044425 -11.435394 -1.910255 7.339547 -27.433918 2.035674 -6.273735 -0.000000 0.000000 -0.000000 3.557344 -26.212560 4.772371 0.000000 0.000000 0.000000 -62.419371 -21.858354 -66.778671 -0.000053 -109.501347 -0.000043 0.901652 -4.326303 14.359139 -15.245223 10.163072 26.456307 3.939041 7.948710 0.746802 -0.579459 1.574995 2.538721 -0.000001 0.000000 -0.000000 0.000000 0.000015 0.000005 0.000003 0.000007 -0.000066 -0.000005 0.000011 -0.000057 0.000001 -0.000003 -0.000000 -0.000002 -0.001928 0.015980 0.000002 0.001954 -0.016047 -0.000002 0.000010 -0.000058 0.000002 -0.000003 -0.000001 -0.000007 0.000001 0.000003 0.000005 0.000020 -0.000069 -0.000008 0.000008 -0.000055 0.000001 -0.000002 -0.000001 1.208791 13.185490 10.706539 0.000000 0.000000 0.000000 -58.718487 43.222533 51.623157 -0.000024 106.496371 0.000017 2.902262 -4.000202 -38.894809 -6.948223 -5.049336 -29.743008 4.637205 -8.634137 -0.225397 -1.273759 0.137307 -2.094863 0.000001 0.000003 -0.000002 0.000001 0.000011 -0.000005 0.000005 -0.000018 0.000085 0.000003 -0.000001 0.000024 0.000000 -0.000003 -0.000000 -0.000002 0.000008 0.000001 0.000009 -0.000017 0.000081 -0.000004 0.000018 0.000019 -0.000000 0.000002 0.000000 0.000012 0.000002 0.000002 -0.000002 -0.000014 0.000082 -0.000010 0.000003 0.000025 -0.000000 -0.000004 0.000000 -49.429997 2.049651 4.442993 81.490946 6.679353 -0.497384 -42.686203 7.131776 -6.036312 -0.000012 -0.000007 -0.000003 0.000000 -0.000000 0.000000 -40.023201 -15.779014 -3.564409 78.694762 -7.484366 -4.662037 -50.498563 -12.642260 5.144852 0.000017 0.000001 -0.000003 0.000000 0.000001 -0.000000 
0.255863 28.323509 0.356233 11.766905 3.101344 -1.194229 9.913115 1.382829 1.087592 7.633180 0.769256 0.058698 0.000000 0.000000 0.000000 7.624616 0.856615 0.039881 -11.444185 -1.923866 7.361599 -27.436166 1.999899 -6.276384 -0.000000 -0.000000 -0.000000 3.557349 -26.212560 4.772370 0.000000 0.000000 0.000000 -62.439574 -21.913830 -66.819563 -0.000075 -109.545764 -0.000086 1.016389 -4.380415 14.319695 -15.245221 10.163076 26.456307 3.939042 7.948711 0.746802 -0.579460 1.574997 2.538721 -0.000000 0.000005 -0.000002 0.000001 0.000011 0.000005 0.000003 0.000003 -0.000064 -0.000006 0.000012 -0.000059 0.000001 -0.000004 -0.000003 -0.000004 -0.001924 0.015981 0.000001 0.001957 -0.016046 0.000001 0.000004 -0.000062 -0.000000 0.000000 -0.000002 -0.000005 0.000001 0.000003 0.000004 0.000020 -0.000065 -0.000007 0.000004 -0.000057 0.000002 0.000001 0.000000 1.207735 13.175773 10.734721 0.000000 0.000000 0.000000 -58.706883 43.206127 51.589662 0.000022 106.607245 -0.000030 2.994834 -3.971792 -38.906007 -6.948226 -5.049334 -29.743005 4.637202 -8.634136 -0.225401 -1.273760 0.137307 -2.094865 -0.000002 0.000000 0.000003 0.000001 0.000007 -0.000004 0.000005 -0.000019 0.000086 0.000003 0.000006 0.000023 -0.000000 0.000001 0.000000 -0.000003 0.000004 0.000002 0.000009 -0.000016 0.000082 -0.000004 0.000020 0.000020 -0.000000 -0.000002 0.000000 0.000013 0.000005 0.000003 -0.000002 -0.000010 0.000081 -0.000010 0.000007 0.000025 0.000000 -0.000000 0.000000 -49.442694 2.039969 4.460411 81.500631 6.671063 -0.529623 -42.693013 7.140554 -6.019967 -0.000014 -0.000007 -0.000004 0.000000 -0.000001 0.000000 -40.034191 -15.784130 -3.552578 78.676744 -7.490810 -4.668470 -50.486945 -12.641609 5.152045 0.000016 -0.000001 -0.000001 0.000000 -0.000002 0.000000 
0.257294 28.323792 0.358701 11.785347 3.094980 -1.206365 9.904161 1.396682 1.080909 7.626660 0.780096 0.054113 0.000000 0.000000 0.000000 7.617959 0.867543 0.035189 -11.454965 -1.944256 7.391725 -27.423194 1.943258 -6.281664 -0.000000 0.000000 0.000000 3.557343 -26.212564 4.772371 0.000000 0.000000 0.000000 -62.470372 -21.974016 -66.864519 -0.000001 -109.579737 0.000008 1.123968 -4.400877 14.281682 -15.245218 10.163070 26.456309 3.939045 7.948714 0.746802 -0.579459 1.575003 2.538725 -0.000001 -0.000000 -0.000004 0.000000 0.000013 0.000008 0.000004 0.000005 -0.000064 -0.000008 0.000007 -0.000057 0.000001 -0.000004 0.000000 -0.000002 -0.001933 0.015982 0.000002 0.001953 -0.016051 -0.000002 0.000004 -0.000058 -0.000002 -0.000003 0.000000 -0.000005 -0.000003 0.000006 0.000005 0.000019 -0.000066 -0.000008 0.000000 -0.000056 0.000001 0.000002 0.000000 1.206702 13.162148 10.768385 0.000000 0.000000 0.000000 -58.707621 43.191149 51.562713 -0.000038 106.707028 -0.000011 3.052717 -3.952011 -38.913326 -6.948226 -5.049336 -29.743008 4.637203 -8.634136 -0.225401 -1.273761 0.137310 -2.094862 -0.000000 0.000003 0.000003 0.000001 0.000007 -0.000005 0.000004 -0.000022 0.000086 0.000003 0.000006 0.000023 0.000000 0.000004 0.000000 -0.000003 0.000002 0.000001 0.000009 -0.000022 0.000082 -0.000004 0.000018 0.000020 0.000000 0.000000 -0.000000 0.000012 0.000005 0.000002 -0.000002 -0.000015 0.000081 -0.000010 0.000007 0.000025 -0.000000 0.000000 0.000000 -49.453548 2.031143 4.477947 81.516682 6.660820 -0.559781 -42.704593 7.157853 -6.000880 -0.000012 -0.000010 -0.000005 -0.000000 -0.000000 0.000000 -40.040379 -15.791182 -3.540348 78.657469 -7.496113 -4.672124 -50.475429 -12.638832 5.159133 0.000015 0.000000 -0.000002 0.000000 -0.000001 0.000000 
